<?xml version="1.0" encoding="utf-8"?>
<!-- Generator: Adobe Illustrator 15.1.0, SVG Export Plug-In . SVG Version: 6.00 Build 0)  -->
<!DOCTYPE svg PUBLIC "-//W3C//DTD SVG 1.1//EN" "http://www.w3.org/Graphics/SVG/1.1/DTD/svg11.dtd">
<svg version="1.1" id="Layer_1" xmlns="http://www.w3.org/2000/svg" xmlns:xlink="http://www.w3.org/1999/xlink" x="0px" y="0px"
	 width="1500px" height="1080px" viewBox="0 0 1500 1080" enable-background="new 0 0 1500 1080" xml:space="preserve">
<path d="M1409,749c-49-24-125-47-195-92l-3-11c54-9,106-25,159-49c-13-47-33-93-42-141c-19-87-19-175-67-245c-33-47-74-76-157-76
	s-124,29-157,76c-48,70-48,158-67,245c-9,48-29,94-42,141c53,24,105,40,159,49l-3,11c-36,23-71,40-107,57c54,23,88,34,126,59
	c41,27,72,99,80,140l11,57h396C1500,877,1489,789,1409,749z M940,800c-82-40-165-69-255-129c-10-27-18-57-23-88c30-41,51-96,64-152
	c30-3,52-58,59-109c3-25-8-52-35-60l1-14c5-68,1-139-38-178C672,30,620,0,530,0S388,30,347,70c-39,39-43,110-38,178l1,14
	c-27,8-38,35-35,60c7,51,29,106,59,109c13,56,34,111,64,153c-5,31-13,61-23,87c-90,60-173,89-255,129C32,843,5,965,0,1080h1060
	C1055,970,1028,843,940,800z"/>
</svg>
