<?xml version="1.0" encoding="utf-8"?>
<!-- Generator: Adobe Illustrator 15.1.0, SVG Export Plug-In . SVG Version: 6.00 Build 0)  -->
<!DOCTYPE svg PUBLIC "-//W3C//DTD SVG 1.1//EN" "http://www.w3.org/Graphics/SVG/1.1/DTD/svg11.dtd">
<svg version="1.1" id="Layer_1" xmlns="http://www.w3.org/2000/svg" xmlns:xlink="http://www.w3.org/1999/xlink" x="0px" y="0px"
	 width="1130px" height="1090px" viewBox="0 0 1130 1090" enable-background="new 0 0 1130 1090" xml:space="preserve">
<path d="M1015,810c-82-40-205-79-295-139c-10-27-18-57-23-88c30-41,51-96,64-152c30-3,52-58,59-109c3-25-8-52-35-60l1-14
	c5-68,1-139-38-178C707,30,655,0,565,0S423,30,382,70c-39,39-43,110-38,178l1,14c-27,8-38,35-35,60c7,51,29,106,59,109
	c13,56,34,111,64,153c-5,31-13,61-23,87c-90,60-213,99-295,139C27,853,5,975,0,1090h1130C1125,975,1103,853,1015,810z"/>
</svg>
