<?xml version="1.0" encoding="utf-8"?>
<!-- Generator: Adobe Illustrator 15.1.0, SVG Export Plug-In . SVG Version: 6.00 Build 0)  -->
<!DOCTYPE svg PUBLIC "-//W3C//DTD SVG 1.1//EN" "http://www.w3.org/Graphics/SVG/1.1/DTD/svg11.dtd">
<svg version="1.1" id="Layer_1" xmlns="http://www.w3.org/2000/svg" xmlns:xlink="http://www.w3.org/1999/xlink" x="0px" y="0px"
	 width="1500px" height="1400px" viewBox="0 0 1500 1400" enable-background="new 0 0 1500 1400" xml:space="preserve">
<path d="M975,700c0,124-101,225-225,225S525,824,525,700s101-225,225-225S975,576,975,700z M1345,763V637c-61-11-133-36-202-70
	c-6-17-13-35-21-51c24-72,57-141,93-192l-89-89c-51,36-120,69-192,93c-16-8-34-15-51-21c-34-69-59-141-70-202H687
	c-11,61-36,133-70,202c-17,6-35,13-51,21c-72-24-141-57-192-93l-89,89c36,51,69,120,93,192c-8,16-15,34-21,51c-69,34-141,59-202,70
	v126c61,11,133,36,202,70c6,17,13,35,21,51c-24,72-57,141-93,192l89,89c51-36,120-69,192-93c16,8,34,15,51,21c34,69,59,141,70,202
	h126c11-61,36-133,70-202c17-6,35-13,51-21c72,24,141,57,192,93l89-89c-36-51-69-120-93-192c8-16,15-34,21-51
	C1212,799,1284,774,1345,763z"/>
</svg>
