<?xml version="1.0" encoding="utf-8"?>
<!-- Generator: Adobe Illustrator 15.1.0, SVG Export Plug-In . SVG Version: 6.00 Build 0)  -->
<!DOCTYPE svg PUBLIC "-//W3C//DTD SVG 1.1//EN" "http://www.w3.org/Graphics/SVG/1.1/DTD/svg11.dtd">
<svg version="1.1" id="Layer_1" xmlns="http://www.w3.org/2000/svg" xmlns:xlink="http://www.w3.org/1999/xlink" x="0px" y="0px"
	 width="1500px" height="1400px" viewBox="0 0 1500 1400" enable-background="new 0 0 1500 1400" xml:space="preserve">
<path d="M650,930c-181,0-330-149-330-330s149-330,330-330s330,149,330,330S831,930,650,930z M1047,912l-63-41c60-73,96-168,96-271
	c0-238-192-430-430-430S220,362,220,600s192,430,430,430c103,0,198-36,271-96l41,63l233,233l85-85L1047,912z"/>
</svg>
