<?xml version="1.0" encoding="utf-8"?>
<!-- Generator: Adobe Illustrator 15.1.0, SVG Export Plug-In . SVG Version: 6.00 Build 0)  -->
<!DOCTYPE svg PUBLIC "-//W3C//DTD SVG 1.1//EN" "http://www.w3.org/Graphics/SVG/1.1/DTD/svg11.dtd">
<svg version="1.1" id="Layer_1" xmlns="http://www.w3.org/2000/svg" xmlns:xlink="http://www.w3.org/1999/xlink" x="0px" y="0px"
	 width="1500px" height="1400px" viewBox="0 0 1500 1400" enable-background="new 0 0 1500 1400" xml:space="preserve">
<path d="M1200,965c-82-40-205-79-295-139c-10-26-17-56-23-87c31-41,52-97,65-153c29-4,51-59,58-109c3-26-8-53-37-60l1-14
	c6-78,7-144-44-195c-35-35-100-53-170-53c-60,0-90,20-120,45c-25,0-53,15-71,34c-35,37-39,101-33,169l1,14c-29,7-40,34-37,60
	c7,50,29,105,58,109c13,57,34,112,65,154c-5,30-13,60-23,86c-90,60-213,99-295,139c-88,43-110,165-115,280h1130
	C1310,1130,1288,1008,1200,965z"/>
</svg>
